<svg xmlns="http://www.w3.org/2000/svg" xmlns:xlink="http://www.w3.org/1999/xlink" width="500" zoomAndPan="magnify" viewBox="0 0 375 374.999991" height="500" preserveAspectRatio="xMidYMid meet" version="1.0"><defs><clipPath id="c07f4c93a4"><path d="M 37.5 66 L 337.5 66 L 337.5 309 L 37.5 309 Z M 37.5 66 " clip-rule="nonzero"/></clipPath></defs><g clip-path="url(#c07f4c93a4)"><path fill="#4880ff" d="M 121.441406 89.820312 L 185.941406 89.820312 C 199.679688 89.820312 211.5 86.640625 223.441406 79.800781 L 245.460938 67.078125 C 247.320312 66 249.421875 66 251.21875 67.078125 C 253.078125 68.160156 254.101562 69.960938 254.101562 72.058594 L 254.101562 89.820312 L 298.921875 89.820312 C 309.480469 89.820312 318.121094 98.460938 318.121094 109.019531 L 318.121094 167.28125 L 332.21875 167.28125 C 335.101562 167.28125 337.5 169.679688 337.5 172.558594 L 337.5 202.441406 C 337.5 205.320312 335.101562 207.71875 332.21875 207.71875 L 318.121094 207.71875 L 318.121094 220.621094 C 318.121094 238.378906 310.859375 254.519531 299.160156 266.21875 C 287.460938 277.921875 271.320312 285.179688 253.558594 285.179688 L 189.058594 285.179688 C 175.320312 285.179688 163.5 288.359375 151.558594 295.199219 L 129.539062 307.921875 C 127.679688 309 125.578125 309 123.78125 307.921875 C 121.921875 306.839844 120.898438 305.039062 120.898438 302.941406 L 120.898438 285.179688 L 76.078125 285.179688 C 65.519531 285.179688 56.878906 276.539062 56.878906 265.980469 L 56.878906 207.71875 L 42.78125 207.71875 C 39.898438 207.71875 37.5 205.320312 37.5 202.441406 L 37.5 172.558594 C 37.5 169.679688 39.898438 167.28125 42.78125 167.28125 L 56.878906 167.28125 L 56.878906 154.378906 C 56.878906 136.621094 64.140625 120.480469 75.839844 108.78125 C 87.539062 97.078125 103.679688 89.820312 121.441406 89.820312 Z M 166.5 187.5 C 166.5 177.238281 158.160156 168.898438 147.898438 168.898438 C 137.640625 168.898438 129.300781 177.238281 129.300781 187.5 C 129.300781 197.761719 137.640625 206.101562 147.898438 206.101562 C 158.160156 206.101562 166.5 197.761719 166.5 187.5 Z M 245.699219 187.5 C 245.699219 177.238281 237.359375 168.898438 227.101562 168.898438 C 216.839844 168.898438 208.5 177.238281 208.5 187.5 C 208.5 197.761719 216.839844 206.101562 227.101562 206.101562 C 237.359375 206.101562 245.699219 197.761719 245.699219 187.5 Z M 294.121094 187.5 L 294.121094 113.878906 C 288.480469 113.878906 282.78125 113.878906 277.140625 113.878906 C 264.421875 113.878906 254.101562 103.5 254.101562 90.839844 L 254.101562 89.878906 L 237.238281 99.601562 C 220.261719 109.378906 203.519531 113.878906 183.898438 113.878906 L 121.441406 113.878906 C 110.28125 113.878906 100.199219 118.441406 92.820312 125.820312 C 85.441406 133.199219 80.878906 143.28125 80.878906 154.441406 L 80.878906 261.179688 C 86.519531 261.179688 92.21875 261.179688 97.859375 261.179688 C 110.578125 261.179688 120.898438 271.558594 120.898438 284.21875 L 120.898438 285.179688 L 137.761719 275.460938 C 154.738281 265.679688 171.480469 261.179688 191.101562 261.179688 L 253.558594 261.179688 C 264.71875 261.179688 274.800781 256.621094 282.179688 249.238281 C 289.558594 241.859375 294.121094 231.78125 294.121094 220.621094 Z M 294.121094 187.5 " fill-opacity="1" fill-rule="evenodd"/></g></svg>