<svg width="100%" height="100%" id="svg" viewBox="0 0 1440 490" xmlns="http://www.w3.org/2000/svg" class="transition duration-300 ease-in-out delay-150"><defs><linearGradient id="gradient" x1="24%" y1="8%" x2="76%" y2="92%"><stop offset="5%" stop-color="#94bc70"></stop><stop offset="95%" stop-color="#d7e9a6"></stop></linearGradient></defs><path d="M 0,500 L 0,125 C 76.18181818181822,131.98564593301435 152.36363636363643,138.9712918660287 253,126 C 353.63636363636357,113.02870813397128 478.72727272727263,80.10047846889952 584,89 C 689.2727272727274,97.89952153110048 774.7272727272727,148.6267942583732 871,166 C 967.2727272727273,183.3732057416268 1074.3636363636365,167.39234449760764 1171,155 C 1267.6363636363635,142.60765550239236 1353.8181818181818,133.8038277511962 1440,125 L 1440,500 L 0,500 Z" stroke="none" stroke-width="0" fill="url(#gradient)" fill-opacity="0.53" class="transition-all duration-300 ease-in-out delay-150 path-0"></path><defs><linearGradient id="gradient" x1="24%" y1="8%" x2="76%" y2="92%"><stop offset="5%" stop-color="#94bc70"></stop><stop offset="95%" stop-color="#d7e9a6"></stop></linearGradient></defs><path d="M 0,500 L 0,291 C 104.35406698564591,288.3397129186603 208.70813397129183,285.6794258373206 298,273 C 387.29186602870817,260.3205741626794 461.52153110047846,237.62200956937795 547,250 C 632.4784688995215,262.37799043062205 729.2057416267943,309.8325358851675 844,311 C 958.7942583732057,312.1674641148325 1091.6555023923447,267.0478468899522 1194,256 C 1296.3444976076553,244.95215311004782 1368.1722488038276,267.9760765550239 1440,291 L 1440,500 L 0,500 Z" stroke="none" stroke-width="0" fill="url(#gradient)" fill-opacity="1" class="transition-all duration-300 ease-in-out delay-150 path-1"></path></svg>